<svg xmlns="http://www.w3.org/2000/svg" width="32" height="32"><path  d="M21.383 4c-1.19 0-2.173.887-2.346 2.031-.45.061-.889.212-1.293.451A3.6 3.6 0 0 0 16 9.584v.5h1V11h1v-.916h1V11h1v-.916h1V11h1v-.916h1v-.5a3.6 3.6 0 0 0-1.744-3.102 3.433 3.433 0 0 0-1.211-.435A1.364 1.364 0 0 1 21.383 5h4.234C26.391 5 27 5.61 27 6.387V16H13.996a.5.5 0 0 0-.014-.178c-.266-1.02-1.162-1.71-2.17-1.71-.148 0-.285.055-.43.085-.381-.738-1.05-1.295-1.898-1.295v.002c-.813 0-1.513.458-1.906 1.12a1.98 1.98 0 0 0-.77.351c-.518-.534-1.218-.866-1.98-.867-1.423 0-2.584 1.095-2.787 2.492H2c-.545 0-1 .455-1 1v2c0 .545.455 1 1 1v4c0 2.207 1.793 4 4 4v1h1v-1h18v1h1v-1c2.207 0 4-1.793 4-4v-4c.545 0 1-.455 1-1v-2c0-.545-.455-1-1-1h-2V6.387A2.391 2.391 0 0 0 25.617 4h-4.234zM19.5 6.998c.429 0 .858.116 1.244.346.624.37.98 1.024 1.125 1.74H17.13c.145-.716.502-1.37 1.126-1.74.386-.23.815-.346 1.244-.346zM17 12v1h1v-1h-1zm2 0v1h1v-1h-1zm2 0v1h1v-1h-1zM9.484 13.904c.556 0 1.05.383 1.202.963a.5.5 0 0 0 .673.336c.147-.06.3-.092.454-.092.541 0 .987.326 1.167.889H3.047c.184-.864.914-1.492 1.781-1.492.572 0 1.102.28 1.445.75a.5.5 0 0 0 .022.03.5.5 0 0 0 .887.105.997.997 0 0 1 .754-.422.5.5 0 0 0 .474-.407c.218-.397.614-.66 1.074-.66zM17 14v1h1v-1h-1zm2 0v1h1v-1h-1zm2 0v1h1v-1h-1zM2 17h28v2H2v-2zm1 3h26v4c0 1.67-1.33 3-3 3H6c-1.67 0-3-1.33-3-3v-4z" color="#000" enable-background="accumulate" font-family="sans-serif" font-weight="400" overflow="visible"/></svg>