<svg xmlns="http://www.w3.org/2000/svg" enable-background="new 0 0 512 275" viewBox="0 0 512 275"><path d="M415.8,82.6c-11.2,0-22.3,2-32.9,5.8l-33.4-73.1h28c4.2-0.2,7.5-3.7,7.3-7.9c-0.1-4-3.3-7.2-7.3-7.3h-73.3c-4.2,0.2-7.5,3.7-7.3,7.9c0.1,4,3.3,7.2,7.3,7.3h28.6l6.1,13.3L194.6,75.1l-11.7-31.3h28c4.2,0,7.6-3.4,7.6-7.6c0-4.2-3.4-7.6-7.6-7.6h-72.2c-4.2,0-7.6,3.4-7.6,7.6c0,4.2,3.4,7.6,7.6,7.6h28l14.4,38.8l-23.3,22.3C117,70.9,56.4,76.4,22.4,117.2S-6.1,218.7,34.7,252.7s101.4,28.5,135.4-12.3c10.4-12.5,17.5-27.5,20.6-43.5l16.5,1c2.6,9.6,10,17.2,19.6,19.9v9.8h-4.2c-4.2,0-7.6,3.4-7.6,7.6c0,4.2,3.4,7.6,7.6,7.6c0,0,0,0,0,0h23.6c4.2,0,7.6-3.4,7.6-7.6c0-4.2-3.4-7.6-7.6-7.6c0,0,0,0,0,0H242v-9.8c15-4.2,23.7-19.7,19.5-34.7c-1.9-6.8-6.3-12.6-12.2-16.3l98.2-119.4l21.6,47.3c-46.4,25.8-63.1,84.4-37.3,130.8c25.8,46.4,84.4,63.1,130.8,37.3C509,237,525.7,178.4,499.9,132C482.9,101.5,450.7,82.5,415.8,82.6L415.8,82.6z M227.4,163.4l-27.5-74L327,48.3l-93.9,114.2C231.2,162.6,229.3,162.9,227.4,163.4L227.4,163.4z M177.1,180.8l-72-4.4l52.5-50.3c12.6,14.6,19.5,33.3,19.5,52.6C177.2,179.5,177.2,180.1,177.1,180.8L177.1,180.8z M96.2,259.8c-44.7,0.1-81-36.2-81.1-80.9s36.2-81,80.9-81.1c18.4,0,36.4,6.3,50.8,17.8l-64.7,62c0,0-0.1,0.1-0.1,0.1c-0.1,0.1-0.2,0.2-0.3,0.3l-0.2,0.2c-0.1,0.1-0.2,0.2-0.3,0.4l-0.2,0.3l-0.2,0.4l-0.2,0.3c-0.1,0.1-0.1,0.2-0.2,0.4s-0.1,0.2-0.1,0.3s-0.1,0.2-0.1,0.4s-0.1,0.2-0.1,0.3s-0.1,0.2-0.1,0.4s-0.1,0.2-0.1,0.4l-0.1,0.4c0,0.1,0,0.3,0,0.4c0,0.1,0,0.1,0,0.2v0.1c0,0.1,0,0.3,0,0.4c0,0.1,0,0.3,0,0.4s0,0.2,0,0.4s0,0.3,0,0.4s0,0.2,0.1,0.3s0,0.3,0.1,0.4l0.1,0.3c0,0.1,0.1,0.2,0.1,0.4l0.1,0.3l0.2,0.3l0.2,0.3c0.1,0.1,0.1,0.2,0.2,0.3c0.1,0.1,0.1,0.2,0.2,0.3c0.1,0.1,0.1,0.2,0.2,0.3c0.1,0.1,0.1,0.2,0.2,0.3l0.3,0.3l0.1,0.1c0.1,0,0.1,0.1,0.1,0.1l0.3,0.3l0.3,0.2l0.3,0.2l0.3,0.2l0.3,0.2l0.3,0.2l0.3,0.2l0.3,0.1l0.4,0.1l0.3,0.1l0.4,0.1l0.4,0.1l0.4,0.1h0.4h0.1l88.5,5.4C167.2,233.2,134.3,259.7,96.2,259.8z M168.7,115.6l18.2-17.5l27.2,73.1c-3.1,3.2-5.4,7.2-6.6,11.4l-15.1-0.9c0-1,0.1-2,0.1-3C192.4,155.5,184,133.1,168.7,115.6L168.7,115.6z M234.5,203.6c-7.2,0-13-5.8-13-13s5.8-13,13-13s13,5.8,13,13l0,0C247.4,197.8,241.6,203.6,234.5,203.6L234.5,203.6L234.5,203.6z M415.8,259.8c-44.7,0-81-36.3-80.9-81.1c0-28.9,15.5-55.6,40.6-70.1l33.4,73.3c1.2,2.7,3.9,4.4,6.9,4.4c1.1,0,2.2-0.2,3.1-0.7c3.8-1.7,5.5-6.2,3.8-10.1l-33.5-73.4c42.3-14.7,88.4,7.7,103.1,49.9c14.7,42.3-7.7,88.4-49.9,103.1C433.9,258.2,424.9,259.8,415.8,259.8z"/></svg>