<svg xmlns="http://www.w3.org/2000/svg" width="64" height="64" enable-background="new" viewBox="0 0 64 64"><path  d="m59 56c0.55226-5.5e-5 0.99994-0.44774 1-1 0-6.6156-5.3844-12-12-12h-4.2207c2.6001-2.5432 4.2207-6.0838 4.2207-10 0-6.3056-3.0812-8.998-5.5254-11.564-2.4442-2.5664-4.4518-5.0321-3.4824-12.303 0.080342-0.60009-0.38675-1.1334-0.99219-1.1328-4.147 0-8.5269 3.2484-11.994 7.9023-3.4672 4.6539-6.0059 10.825-6.0059 17.098 0 3.9162 1.6206 7.4568 4.2207 10h-8.2207c-6.6156 0-12 5.3844-12 12 5.52e-5 0.55226 0.44774 0.99994 1 1zm-22.037-45.789c-0.53994 6.7104 1.6763 10.098 4.0625 12.604 2.5558 2.6836 4.9746 4.4911 4.9746 10.186 0 4.3818-2.3434 8.1946-5.8398 10.289 0.53184-0.98991 0.83984-2.1175 0.83984-3.3164 0-2.0078-0.91113-4.7523-2.1445-7.1875-0.6167-1.2176-1.3154-2.3361-2.0859-3.2031-0.77057-0.86706-1.6313-1.582-2.7695-1.582s-1.999 0.71497-2.7695 1.582c-0.77057 0.86706-1.4692 1.9855-2.0859 3.2031-1.2334 2.4352-2.1445 5.1797-2.1445 7.1875 0 1.2012 0.31197 2.3291 0.8457 3.3203-3.4998-2.0937-5.8457-5.9087-5.8457-10.293 0-5.7272 2.3715-11.556 5.6094-15.902 2.8948-3.8856 6.4559-6.3771 9.3535-6.8867zm-2.9629 19.789c0.14747 0 0.67989 0.24009 1.2754 0.91016 0.5955 0.67007 1.235 1.67 1.7969 2.7793 1.1237 2.2187 1.9277 4.962 1.9277 6.2832 0 2.6139-1.9545 4.7404-4.4785 5-0.0026 1.13e-4 -0.0052 0.0018-0.0078 2e-3 -0.16854 0.017014-0.34051 0.025344-0.51368 0.025344-2.7708 0-5-2.2362-5-5.0273 0-1.3212 0.80399-4.0645 1.9277-6.2832 0.56187-1.1093 1.2014-2.1092 1.7969-2.7793 0.5955-0.67007 1.1279-0.91016 1.2754-0.91016zm-18 15c5.1796 0 9.2757 3.9619 9.7988 9h-3.8906c-0.48028-2.8283-2.9478-5-5.9082-5s-5.4279 2.1717-5.9082 5h-3.8906c0.52312-5.0381 4.6192-9 9.7988-9zm6.6191 0h4.207c2.1012 1.261 4.5497 2 7.1738 2s5.0726-0.73899 7.1738-2h6.8262c5.1796 0 9.2757 3.9619 9.7988 9h-9.8496c-0.10687-1.2909-0.40886-2.5282-0.89258-3.6719-0.15778-0.37186-0.5238-0.61227-0.92774-0.60938-0.1315 6.18e-4 -0.26159 0.02716-0.38281 0.07813-0.50857 0.21522-0.74641 0.80195-0.53125 1.3105 0.38218 0.90358 0.63556 1.875 0.73633 2.8926h-18.002c-0.31217-3.754-2.3529-7.0228-5.3301-9zm-6.6191 6c1.8657 0 3.3514 1.2819 3.8008 3h-7.6016c0.4494-1.7181 1.9351-3 3.8008-3z" color="#000"/></svg>