<svg xmlns="http://www.w3.org/2000/svg" data-name="Layer 1" viewBox="0 0 128 128"><path d="M112 90a2.0001 2.0001 0 0 0-2 2v6a2 2 0 0 0 4 0V92A2.0001 2.0001 0 0 0 112 90zM18 90a2.0001 2.0001 0 0 0-2 2v6a2 2 0 0 0 4 0V92A2.0001 2.0001 0 0 0 18 90z"/><rect width="6" height="4" x="61" y="82"/><path d="M124 116h-2V74a3.99887 3.99887 0 0 0-4-4H12a3.99887 3.99887 0 0 0-4 4v42H4a3.99887 3.99887 0 0 0-4 4v4a3.99891 3.99891 0 0 0 4 4H124a3.99891 3.99891 0 0 0 4-4v-4A3.99887 3.99887 0 0 0 124 116zM88 74h30v42H88zM48 82a3.99887 3.99887 0 0 1 4-4H76a3.99887 3.99887 0 0 1 4 4v26a3.99891 3.99891 0 0 1-4 4H52a3.99891 3.99891 0 0 1-4-4zM12 74H40v42H12zm112 50H4v-4H124zM19 66H31a6.0135 6.0135 0 0 0-3.33-5.37V52.08a8.92 8.92 0 0 0-17.84 0v4.67a2 2 0 0 0 4 0V52.08a4.92 4.92 0 0 1 9.84 0v8.07A6.01363 6.01363 0 0 0 19 66zM52 56a2.00587 2.00587 0 0 0-2-2H48.75l2.43-5.75a1.9985 1.9985 0 0 0-3.68-1.56L44.41 54H44V47a2 2 0 0 0-4 0v7H38a2.00587 2.00587 0 0 0-2 2V66H52zM61 66h56a3.99887 3.99887 0 0 0-4-4H65A3.99887 3.99887 0 0 0 61 66z"/><path d="M76 82H71v6a2.0001 2.0001 0 0 1-2 2H59a2.0001 2.0001 0 0 1-2-2V82H52v26H76zM71.5 60a2 2 0 0 0 0-4h-4a2 2 0 0 0 0 4zM83.5 60a2 2 0 0 0 0-4h-4a2 2 0 0 0 0 4zM98.5 60a2 2 0 0 0 0-4h-4a2 2 0 0 0 0 4zM110.5 60a2 2 0 0 0 0-4h-4a2 2 0 0 0 0 4zM126 0H38V26H71a2.00591 2.00591 0 0 0 2-2c0-.04-.01-.08-.01-.12 0-.05.01-.09.01-.13V4h4V29.06a3.9725 3.9725 0 0 0-2.55 1.41l-6.55 8A4.00535 4.00535 0 0 0 71 45h36a4.00535 4.00535 0 0 0 3.1-6.53l-6.55-8A3.9725 3.9725 0 0 0 101 29.06V4h4V23.75a2.00591 2.00591 0 0 0 2 2h19a2.00591 2.00591 0 0 0 2-2V2A2.00587 2.00587 0 0 0 126 0zM56 15H52a2 2 0 0 1 0-4h4a2 2 0 0 1 0 4zM97 29H81V4H97zM2 26H34V0H2A2.00587 2.00587 0 0 0 0 2V24A2.00591 2.00591 0 0 0 2 26zM17 11h4a2 2 0 0 1 0 4H17a2 2 0 0 1 0-4z"/></svg>