<svg xmlns="http://www.w3.org/2000/svg"  viewBox="0 0 69 69"><path d="M14.185,15.908l-0,-2.083c-0,-0.552 0.219,-1.082 0.61,-1.473c0.391,-0.391 0.921,-0.61 1.473,-0.61c1.234,-0 1.042,-0 1.042,-0c0.575,-0 1.042,0.466 1.042,1.041c-0,0.575 -0.467,1.042 -1.042,1.042l-1.042,0l0,2.083l2.389,0c-0.575,0 -1.042,-0.466 -1.042,-1.041c0,-0.575 0.467,-1.042 1.042,-1.042l5.639,0c0.575,0 1.042,0.467 1.042,1.042c-0,0.575 -0.467,1.041 -1.042,1.041l2.389,0l-0,-2.083l-1.042,0c-0.575,0 -1.041,-0.467 -1.041,-1.042c-0,-0.575 0.466,-1.041 1.041,-1.041c0,-0 -0.192,-0 1.042,-0c0.552,-0 1.082,0.219 1.473,0.61c0.391,0.391 0.61,0.921 0.61,1.473l0,2.083l10.417,0l0,-2.083c0,-0.552 0.22,-1.082 0.611,-1.473c0.39,-0.391 0.92,-0.61 1.473,-0.61c1.234,-0 1.041,-0 1.041,-0c0.575,-0 1.042,0.466 1.042,1.041c-0,0.575 -0.467,1.042 -1.042,1.042l-1.041,0l-0,2.083l2.388,0c-0.575,0 -1.041,-0.466 -1.041,-1.041c-0,-0.575 0.466,-1.042 1.041,-1.042l5.64,0c0.575,0 1.041,0.467 1.041,1.042c0,0.575 -0.466,1.041 -1.041,1.041l2.388,0l0,-2.083l-1.041,0c-0.575,0 -1.042,-0.467 -1.042,-1.042c-0,-0.575 0.467,-1.041 1.042,-1.041c-0,-0 -0.193,-0 1.041,-0c0.553,-0 1.083,0.219 1.473,0.61c0.391,0.391 0.611,0.921 0.611,1.473l-0,2.083l3.125,0c2.876,0 5.208,2.332 5.208,5.209c-0,-0 -0,22.055 -0,29.166c-0,2.877 -2.332,5.209 -5.208,5.209c-10.09,-0 -35.744,-0 -45.834,-0c-2.876,-0 -5.208,-2.332 -5.208,-5.209c-0,-7.111 -0,-25.531 -0,-29.166c-0,-2.877 2.332,-5.209 5.208,-5.209l3.125,0Zm45.834,14.585l-52.084,-0l0,19.79c0,1.726 1.399,3.125 3.125,3.125c10.09,0 35.744,0 45.834,0c1.726,0 3.125,-1.399 3.125,-3.125l-0,-19.79Zm-4.168,8.332c0,-1.151 -0.933,-2.083 -2.083,-2.083c-5.775,-0 -33.808,-0 -39.583,-0c-1.15,-0 -2.083,0.932 -2.083,2.083c-0,2.354 -0,8.063 -0,10.417c-0,1.15 0.933,2.083 2.083,2.083c5.775,0 33.808,0 39.583,0c1.15,0 2.083,-0.933 2.083,-2.083l0,-10.417Zm-41.666,0l0,10.417l39.583,-0l-0,-10.417l-39.583,0Zm-1.041,-4.167l41.665,0c0.575,0 1.042,-0.466 1.042,-1.041c0,-0.575 -0.467,-1.042 -1.042,-1.042l-41.665,0c-0.575,0 -1.042,0.467 -1.042,1.042c-0,0.575 0.467,1.041 1.042,1.041Zm46.875,-13.541c-0,-1.726 -1.399,-3.125 -3.125,-3.125c-10.09,-0 -35.744,-0 -45.834,-0c-1.726,-0 -3.125,1.399 -3.125,3.125l0,7.291l52.084,0l-0,-7.291Zm-35.722,3.431l0.153,0.153c0.407,0.407 0.407,1.067 0,1.473c-0.406,0.407 -1.066,0.407 -1.473,0l-0.153,-0.153c-1.162,0.554 -2.596,0.351 -3.557,-0.611c-1.22,-1.219 -1.22,-3.2 -0,-4.419c1.219,-1.22 3.2,-1.22 4.419,-0c0.962,0.961 1.165,2.395 0.611,3.557Zm19.36,-2.695l-0.154,-0.153c-0.406,-0.407 -0.406,-1.067 0,-1.473c0.407,-0.407 1.067,-0.407 1.474,-0l0.153,0.153c1.162,-0.554 2.596,-0.351 3.557,0.611c1.22,1.219 1.22,3.2 0,4.419c-1.219,1.22 -3.2,1.22 -4.419,0c-0.962,-0.961 -1.165,-2.395 -0.611,-3.557Zm3.557,0.611c0.406,0.406 0.406,1.066 -0,1.473c-0.407,0.407 -1.067,0.407 -1.473,0c-0.407,-0.407 -0.407,-1.067 -0,-1.473c0.406,-0.407 1.066,-0.407 1.473,-0Zm-26.474,1.473c-0.407,-0.407 -0.407,-1.067 -0,-1.473c0.407,-0.407 1.067,-0.407 1.473,-0c0.407,0.406 0.407,1.066 0,1.473c-0.406,0.407 -1.066,0.407 -1.473,0Z"/></svg>